# xmcd
#
# Track frame offsets:
#	150
#	16220
#	32784
#	47312
#	61453
#	73213
#	95760
#	112323
#	125595
#	139736
#	155806
#	172370
#	186898
#	201039
#	212799
#	235346
#	251909
#	265181
#
# Disc length: 3724
#
# Revision: 1
# Processed by: cddbd v1.5.2PL0 Copyright (c) Steve Scherf et al.
# Submitted via: kJams Pro (development) 1.0patch45.9
#
DISCID=1e0e8a12
DTITLE=Various Artist - NSC 3022
DYEAR=1995
DGENRE=Country
TTITLE0=George Strait - Run
TTITLE1=Garth Brooks - Where The Stars And Stripes And The Eagle Fly
TTITLE2=Garth Brooks - Wrapped Up In You
TTITLE3=Cyndy Thomson - I Always Liked That Best
TTITLE4=Garth Brooks and George Jones - Beer Run
TTITLE5=Pat Green - Carry On
TTITLE6=Joe Diffie - In Another World
TTITLE7=Jeffrey Steele - Something In The Water
TTITLE8=Brian McComas - Night Disappear With You
TTITLE9=George Strait - Vocals - Run
TTITLE10=Garth Brooks - Vocals - Where The Stars Stripes And The Eagle Fly
TTITLE11=Garth Brooks - Vocals - Wrapped Up In You
TTITLE12=Cyndy Thomson - Vocals - I Always Liked That Best
TTITLE13=Garth Brooks and George Jones - Vocals - Beer Run
TTITLE14=Pat Green - Vocals - Carry On
TTITLE15=Joe Diffie - Vocals - In Another World
TTITLE16=Jeffrey Steele - Vocals - Something In The Water
TTITLE17=Brian McComas - Vocals - Night Disappear With You
EXTD=
EXTT0=
EXTT1=
EXTT2=
EXTT3=
EXTT4=
EXTT5=
EXTT6=
EXTT7=
EXTT8=
EXTT9=
EXTT10=
EXTT11=
EXTT12=
EXTT13=
EXTT14=
EXTT15=
EXTT16=
EXTT17=
PLAYORDER=
